<svg xmlns="http://www.w3.org/2000/svg" width="1170.108" height="274.619" viewBox="0 0 1170.108 274.619">
  <g id="logo_katech_b" data-name="logo katech b" transform="translate(-467 -484.676)">
    <path id="Tracé_75" data-name="Tracé 75" d="M0,4.156H31.786V61.114L76.637,4.156H114.4L56.7,77.892l63.306,91.482H82.72L31.786,95.966v73.408H0ZM229.239,47.173H259.9v122.2H229.239V156.457a60.111,60.111,0,0,1-18.006,12.3,50.392,50.392,0,0,1-19.576,3.763q-23.671,0-40.947-18.364T133.432,108.5q0-28.3,16.716-46.387T190.76,44.028A51.615,51.615,0,0,1,211.4,48.184a56.327,56.327,0,0,1,17.838,12.467ZM197.005,72.332a30.979,30.979,0,0,0-23.62,10.052q-9.4,10.052-9.4,25.777,0,15.837,9.571,26.057a31.01,31.01,0,0,0,23.563,10.221q14.441,0,23.956-10.052t9.514-26.338q0-15.949-9.514-25.833T197.005,72.332Zm97.6-70.2h30.662V47.173h18.2V73.567h-18.2v95.806H294.607V73.567H278.883V47.173h15.724ZM482.288,117.146h-98.5q2.134,13.029,11.4,20.722t23.643,7.694a40.88,40.88,0,0,0,29.539-12.018l25.833,12.13q-9.659,13.7-23.137,20.273t-32.01,6.571q-28.753,0-46.836-18.139t-18.083-45.432q0-27.967,18.027-46.443t45.208-18.476q28.865,0,46.948,18.476t18.083,48.8ZM451.626,93a30.764,30.764,0,0,0-11.982-16.623,34.742,34.742,0,0,0-20.758-6.4,36.7,36.7,0,0,0-22.5,7.188Q390.31,81.654,385.134,93Zm175.1-21.116L601.2,85.922q-7.2-7.525-14.226-10.445a42.729,42.729,0,0,0-16.474-2.92q-17.206,0-27.832,10.261t-10.626,26.3q0,15.589,10.233,25.457t26.875,9.868q20.58,0,32.049-14.04l24.178,16.554q-19.655,25.564-55.484,25.564-32.235,0-50.486-19.094t-18.251-44.7A62.921,62.921,0,0,1,534.8,52.564a73.918,73.918,0,0,1,35.548-8.536q18.2,0,32.684,7.244A62.028,62.028,0,0,1,626.728,71.883ZM654.47,0h30.438V59.528A69.86,69.86,0,0,1,702.991,47.9a46.625,46.625,0,0,1,18.42-3.875q18.2,0,30.662,12.579,10.67,10.895,10.67,32.01v80.756H732.53V115.8q0-21.228-2.022-28.753T723.6,75.814a19.4,19.4,0,0,0-12.074-3.706,22.759,22.759,0,0,0-16.005,6.177q-6.683,6.177-9.266,16.848-1.348,5.5-1.348,25.159v49.082H654.47Z" transform="translate(873.978 540.865) rotate(-0.128)" fill="#fff"/>
    <g id="Groupe_3783" data-name="Groupe 3783" transform="translate(789.581 484.676) rotate(90)" opacity="0.71">
      <path id="Tracé_73" data-name="Tracé 73" d="M-4.863,158.216s14.805-9.369,20.923-15.435C54.39,104.769,76.987,69.842,74.533-.515l102.933.166c.226,2.529,0,4.971,0,7.253.046,26.528-.1,53.059.14,79.586.032,3.572,0,6.047,0,6.047s-48.632-4.623-96.888,24.578c-6.894,4.082-20.255,13.919-30.73,24a169.788,169.788,0,0,0-17.549,19.928s31.692,42.041,82.522,55.475c16.73,4.34,29.963,7.964,55.716,5.429a53.186,53.186,0,0,0,6.919,0s.034,6.813,0,10.745q-.35,40.232.007,80.47c.035,3.4-.313,8.493-.313,8.493l-102.622.259s.585-10.551.557-13.164c-.572-52.828-20.187-89.407-54.754-125.33-5.245-5.45-18.582-14.667-18.582-14.667l-11.922-7.5" transform="translate(96.999 0.52)" fill="#fff"/>
      <path id="Tracé_74" data-name="Tracé 74" d="M51.112,190.223c37.728,43.713,45.685,73.489,47.558,120a91.961,91.961,0,0,1-.718,12.206s-1.887.346-8.539,0C61.2,320.96,34.232,314.094,8.067,303.62,2.414,301.356-.014,298.2,0,291.82Q.279,161.474.058,31.125c0-3.316.425-5.95,2.256-8.16a10.837,10.837,0,0,1,4.2-2.85C33.916,8.537,62.493,2.365,92.07.014c8.65-.688,5.972.454,6.64,10.154-.027,57.284-13.557,84.57-54.6,128.768-6.648,6.654-30.487,22.327-30.487,22.327" transform="translate(0 0)" fill="#fff"/>
    </g>
  </g>
</svg>
